<svg xmlns="http://www.w3.org/2000/svg" viewBox="0 0 16 16"><defs><style>.cls-1{fill:#e8ac18;}.cls-2{fill:#ffcb32;}.cls-3{fill:#991c00;}.cls-4{fill:#721f11;}</style></defs><title>Asset 3</title><g id="Layer_2" data-name="Layer 2"><g id="Icon_Name" data-name="Icon Name"><rect class="cls-1" width="1" height="16"/><rect class="cls-1" x="13" width="1" height="16"/><rect class="cls-2" x="1" width="2" height="16"/><rect class="cls-2" x="14" width="2" height="16"/><rect class="cls-3" x="3" y="1.07" width="10" height="13.87"/><path class="cls-4" d="M5,10.94V1.07H3V14.93H13V12.8H6.74A1.8,1.8,0,0,1,5,10.94Z"/><rect class="cls-2" x="3" y="6" width="10" height="2"/><rect class="cls-2" x="6" y="5" width="4" height="5"/><polygon class="cls-3" points="8 7.79 8 6.75 8.63 6.75 8.63 5.91 7.37 5.91 7.37 8.63 8.63 8.63 8.63 7.79 8 7.79"/><rect class="cls-1" x="3" y="7" width="3" height="1"/><rect class="cls-1" x="10" y="7" width="3" height="1"/><rect class="cls-1" x="6" y="9" width="4" height="1"/></g></g></svg>